<svg xmlns="http://www.w3.org/2000/svg" viewBox="0 0 720 260" role="img" aria-labelledby="title desc">
  <title id="title">Micasa Staycations</title>
  <desc id="desc">Gold Micasa Staycations villa and palm logo on a black background.</desc>
  <defs>
    <linearGradient id="gold" x1="0" y1="0" x2="1" y2="1">
      <stop offset="0" stop-color="#9b6b1f" />
      <stop offset="0.32" stop-color="#d9b35b" />
      <stop offset="0.68" stop-color="#b8842f" />
      <stop offset="1" stop-color="#f5dc91" />
    </linearGradient>
    <filter id="softGlow" x="-20%" y="-20%" width="140%" height="140%">
      <feDropShadow dx="0" dy="2" stdDeviation="2" flood-color="#b8842f" flood-opacity="0.18" />
    </filter>
  </defs>
  <rect width="720" height="260" fill="#ffffff" />
  <g fill="none" stroke="url(#gold)" stroke-linecap="round" stroke-linejoin="round" filter="url(#softGlow)">
    <path d="M155 118h410" stroke-width="4" />
    <path d="M204 136h312" stroke-width="2" />
    <path d="M288 101 360 45l72 56" stroke-width="8" />
    <path d="M305 100 360 58l55 42" stroke-width="4" />
    <path d="M332 99V73h56v26" stroke-width="5" />
    <path d="M352 74v25M368 74v25" stroke-width="3" />
    <path d="M268 112c-32 12-53 7-70-18-11-16-4-35 13-34 15 1 20 18 9 26-9 6-20-1-16-11" stroke-width="5" />
    <path d="M452 112c32 12 53 7 70-18 11-16 4-35-13-34-15 1-20 18-9 26 9 6 20-1 16-11" stroke-width="5" />
    <path d="M258 110c21-4 36-13 43-29 14 20 34 20 59 0 25 20 45 20 59 0 7 16 22 25 43 29" stroke-width="4" />
    <path d="M255 115c-18 0-33-6-46-18M465 115c18 0 33-6 46-18" stroke-width="3" />
  </g>
  <g fill="url(#gold)" filter="url(#softGlow)">
    <path d="M258 82c-15-28-6-58 22-70-10 16-12 31-7 47 1-25 14-43 39-52-12 17-17 34-13 50 7-22 23-35 49-41-18 18-27 37-27 56 12-15 27-23 45-24-14 19-32 30-56 34-12 2-26 1-52 0Z" transform="translate(-66 0) scale(.72)" />
    <path d="M258 82c-15-28-6-58 22-70-10 16-12 31-7 47 1-25 14-43 39-52-12 17-17 34-13 50 7-22 23-35 49-41-18 18-27 37-27 56 12-15 27-23 45-24-14 19-32 30-56 34-12 2-26 1-52 0Z" transform="translate(500 0) scale(.72)" />
    <path d="M180 36c10 27 13 52 8 80h-9c5-30 2-56-8-78Z" />
    <path d="M540 36c-10 27-13 52-8 80h9c-5-30-2-56 8-78Z" />
  </g>
  <g fill="url(#gold)" text-anchor="middle" filter="url(#softGlow)">
    <text x="360" y="182" font-family="Georgia, 'Times New Roman', serif" font-size="72" letter-spacing="10">MICASA</text>
    <text x="360" y="222" font-family="Georgia, 'Times New Roman', serif" font-size="27" letter-spacing="15">STAYCATIONS</text>
  </g>
  <g fill="none" stroke="url(#gold)" stroke-linecap="round" filter="url(#softGlow)">
    <path d="M210 206h55M455 206h55" stroke-width="4" />
    <path d="M226 232c33 16 87 18 134 18s101-2 134-18" stroke-width="3" />
  </g>
</svg>
